<?xml version="1.0" standalone="no"?>
<!DOCTYPE svg PUBLIC "-//W3C//DTD SVG 20010904//EN"
 "http://www.w3.org/TR/2001/REC-SVG-20010904/DTD/svg10.dtd">
<svg version="1.0" xmlns="http://www.w3.org/2000/svg"
 width="32.000000pt" height="22.000000pt" viewBox="0 0 32.000000 22.000000"
 preserveAspectRatio="xMidYMid meet">

<g transform="translate(0.000000,22.000000) scale(0.100000,-0.100000)"
fill="#000000" stroke="none">
<path d="M150 153 c0 -62 8 -62 38 -2 15 31 22 34 65 37 46 3 47 3 47 -27 0
-16 5 -33 10 -36 6 -4 10 10 10 33 0 47 -10 52 -107 52 l-63 0 0 -57z"/>
<path d="M7 153 c-4 -3 -7 -28 -7 -53 l0 -47 41 -7 c23 -4 53 -16 67 -27 14
-11 29 -16 33 -12 14 14 22 83 10 83 -6 0 -11 16 -11 35 l0 35 -63 0 c-35 0
-67 -3 -70 -7z m63 -67 c-7 -7 -13 -7 -20 0 -6 6 -3 10 10 10 13 0 16 -4 10
-10z"/>
<path d="M205 150 c4 -6 11 -8 16 -5 14 9 11 15 -7 15 -8 0 -12 -5 -9 -10z"/>
<path d="M250 71 c0 -5 7 -12 16 -15 14 -5 15 -4 4 9 -14 17 -20 19 -20 6z"/>
<path d="M291 64 c0 -11 3 -14 6 -6 3 7 2 16 -1 19 -3 4 -6 -2 -5 -13z"/>
</g>
</svg>
